# Blender 3.6.3
# www.blender.org
mtllib untitled.mtl
o Cube
v -1.000000 -1.000000 5.000000
v -1.000000 1.000000 5.000000
v -1.000000 -1.000000 -5.000000
v -1.000000 1.000000 -5.000000
v 1.000000 -1.000000 5.000000
v 1.000000 1.000000 5.000000
v 1.000000 -1.000000 -5.000000
v 1.000000 1.000000 -5.000000
v -1.000000 -3.000000 7.500000
v -1.000000 -1.000000 7.500000
v -1.000000 -1.000000 -7.500000
v -1.000000 -3.000000 -7.500000
v 1.000000 -3.000000 -7.500000
v 1.000000 -1.000000 -7.500000
v 1.000000 -1.000000 7.500000
v 1.000000 -3.000000 7.500000
vn -1.0000 -0.0000 -0.0000
vn 1.0000 -0.0000 -0.0000
vn -0.0000 0.7809 -0.6247
vn -0.0000 -1.0000 -0.0000
vn -0.0000 1.0000 -0.0000
vn -0.0000 -0.0000 -1.0000
vn -0.0000 -0.0000 1.0000
vn -0.0000 -0.7809 -0.6247
vn -0.0000 -0.7809 0.6247
vn -0.0000 0.7809 0.6247
vt 0.375000 0.000000
vt 0.625000 0.000000
vt 0.625000 0.250000
vt 0.375000 0.250000
vt 0.375000 0.500000
vt 0.625000 0.500000
vt 0.625000 0.750000
vt 0.375000 0.750000
vt 0.875000 0.500000
vt 0.125000 0.500000
vt 0.125000 0.750000
vt 0.875000 0.750000
vt 0.625000 1.000000
vt 0.375000 1.000000
s 0
f 1/1/1 2/2/1 4/3/1 3/4/1
f 3/4/1 4/3/1 11/3/1 12/4/1
f 7/5/2 8/6/2 6/7/2 5/8/2
f 4/9/3 8/6/3 14/6/3 11/9/3
f 3/10/4 7/5/4 5/8/4 1/11/4
f 8/6/5 4/9/5 2/12/5 6/7/5
f 12/4/6 11/3/6 14/6/6 13/5/6
f 16/8/7 15/7/7 10/13/7 9/14/7
f 2/2/1 1/1/1 9/1/1 10/2/1
f 1/11/8 5/8/8 16/8/8 9/11/8
f 8/6/2 7/5/2 13/5/2 14/6/2
f 7/5/9 3/10/9 12/10/9 13/5/9
f 6/7/10 2/12/10 10/12/10 15/7/10
f 5/8/2 6/7/2 15/7/2 16/8/2
o Plane
v -1.000000 0.000000 1.000000
v 1.000000 0.000000 1.000000
v -1.000000 0.000000 -1.000000
v 1.000000 0.000000 -1.000000
vn -0.0000 1.0000 -0.0000
vt 0.000000 0.000000
vt 1.000000 0.000000
vt 1.000000 1.000000
vt 0.000000 1.000000
s 0
f 17/15/11 18/16/11 20/17/11 19/18/11
o Cube.001
v -5.000000 -3.935608 15.000000
v -5.000000 -0.582522 15.000000
v -5.000000 -3.935608 5.000000
v -5.000000 -0.582522 5.000000
v 5.000000 -3.935608 15.000000
v 5.000000 -0.582522 15.000000
v 5.000000 -3.935608 5.000000
v 5.000000 -0.582522 5.000000
vn -1.0000 -0.0000 -0.0000
vn -0.0000 -0.0000 -1.0000
vn 1.0000 -0.0000 -0.0000
vn -0.0000 -0.0000 1.0000
vn -0.0000 -1.0000 -0.0000
vn -0.0000 1.0000 -0.0000
vt 0.375000 0.000000
vt 0.625000 0.000000
vt 0.625000 0.250000
vt 0.375000 0.250000
vt 0.625000 0.500000
vt 0.375000 0.500000
vt 0.625000 0.750000
vt 0.375000 0.750000
vt 0.625000 1.000000
vt 0.375000 1.000000
vt 0.125000 0.500000
vt 0.125000 0.750000
vt 0.875000 0.500000
vt 0.875000 0.750000
s 0
f 21/19/12 22/20/12 24/21/12 23/22/12
f 23/22/13 24/21/13 28/23/13 27/24/13
f 27/24/14 28/23/14 26/25/14 25/26/14
f 25/26/15 26/25/15 22/27/15 21/28/15
f 23/29/16 27/24/16 25/26/16 21/30/16
f 28/23/17 24/31/17 22/32/17 26/25/17
o Cube.002
v -10.000000 -3.935608 -4.636145
v -10.000000 -0.582523 -4.636145
v -10.000000 -3.935608 -14.636145
v -10.000000 -0.582523 -14.636145
v 10.000000 -3.935608 -4.636145
v 10.000000 -0.582523 -4.636145
v 10.000000 -3.935608 -14.636145
v 10.000000 -0.582523 -14.636145
vn -1.0000 -0.0000 -0.0000
vn -0.0000 -0.0000 -1.0000
vn 1.0000 -0.0000 -0.0000
vn -0.0000 -0.0000 1.0000
vn -0.0000 -1.0000 -0.0000
vn -0.0000 1.0000 -0.0000
vt 0.375000 0.000000
vt 0.625000 0.000000
vt 0.625000 0.250000
vt 0.375000 0.250000
vt 0.625000 0.500000
vt 0.375000 0.500000
vt 0.625000 0.750000
vt 0.375000 0.750000
vt 0.625000 1.000000
vt 0.375000 1.000000
vt 0.125000 0.500000
vt 0.125000 0.750000
vt 0.875000 0.500000
vt 0.875000 0.750000
s 0
f 29/33/18 30/34/18 32/35/18 31/36/18
f 31/36/19 32/35/19 36/37/19 35/38/19
f 35/38/20 36/37/20 34/39/20 33/40/20
f 33/40/21 34/39/21 30/41/21 29/42/21
f 31/43/22 35/38/22 33/40/22 29/44/22
f 36/37/23 32/45/23 30/46/23 34/39/23
