# Blender 3.6.0
# www.blender.org
mtllib test1.mtl
o Cube.002
v -10.000000 -1.000000 5.000000
v -10.000000 -1.000000 5.000000
v -10.000000 -1.000000 5.000000
v -10.000000 1.000000 5.000000
v -10.000000 1.000000 5.000000
v -10.000000 1.000000 5.000000
v -10.000000 -1.000000 -5.000000
v -10.000000 -1.000000 -5.000000
v -10.000000 -1.000000 -5.000000
v -10.000000 1.000000 -5.000000
v -10.000000 1.000000 -5.000000
v -10.000000 1.000000 -5.000000
v 10.000000 -1.000000 5.000000
v 10.000000 -1.000000 5.000000
v 10.000000 -1.000000 5.000000
v 10.000000 1.000000 5.000000
v 10.000000 1.000000 5.000000
v 10.000000 1.000000 5.000000
v 10.000000 -1.000000 -5.000000
v 10.000000 -1.000000 -5.000000
v 10.000000 -1.000000 -5.000000
v 10.000000 1.000000 -5.000000
v 10.000000 1.000000 -5.000000
v 10.000000 1.000000 -5.000000
vn -1.0000 -0.0000 -0.0000
vn -0.0000 -0.0000 -1.0000
vn 1.0000 -0.0000 -0.0000
vn -0.0000 -0.0000 1.0000
vn -0.0000 -1.0000 -0.0000
vn -0.0000 1.0000 -0.0000
vt 0.375000 0.000000
vt 0.625000 0.000000
vt 0.625000 0.250000
vt 0.375000 0.250000
vt 0.625000 0.500000
vt 0.375000 0.500000
vt 0.625000 0.750000
vt 0.375000 0.750000
vt 0.625000 1.000000
vt 0.375000 1.000000
vt 0.125000 0.500000
vt 0.125000 0.750000
vt 0.875000 0.500000
vt 0.875000 0.750000
s 0
f 1/1/1 4/2/1 10/3/1
f 1/1/1 10/3/1 7/4/1
f 9/4/2 11/3/2 22/5/2
f 9/4/2 22/5/2 20/6/2
f 21/6/3 24/5/3 18/7/3
f 21/6/3 18/7/3 15/8/3
f 14/8/4 16/7/4 5/9/4
f 14/8/4 5/9/4 3/10/4
f 8/11/5 19/6/5 13/8/5
f 8/11/5 13/8/5 2/12/5
f 23/5/6 12/13/6 6/14/6
f 23/5/6 6/14/6 17/7/6
o Cube.003
v -8.406134 -0.813946 -3.514014
v -8.406134 -0.813946 -3.514014
v -8.406134 -0.813946 -3.514014
v -8.406134 0.918105 -2.514014
v -8.406134 0.918105 -2.514014
v -8.406134 0.918105 -2.514014
v -8.406134 2.186054 -8.710166
v -8.406134 2.186054 -8.710166
v -8.406134 2.186054 -8.710166
v -8.406134 3.918105 -7.710166
v -8.406134 3.918105 -7.710166
v -8.406134 3.918105 -7.710166
v -2.820159 -0.813946 -3.514014
v -2.820159 -0.813946 -3.514014
v -2.820159 -0.813946 -3.514014
v -2.820159 0.918105 -2.514014
v -2.820159 0.918105 -2.514014
v -2.820159 0.918105 -2.514014
v -2.820159 2.186054 -8.710166
v -2.820159 2.186054 -8.710166
v -2.820159 2.186054 -8.710166
v -2.820159 3.918105 -7.710166
v -2.820159 3.918105 -7.710166
v -2.820159 3.918105 -7.710166
vn -1.0000 -0.0000 -0.0000
vn -0.0000 0.5000 -0.8660
vn 1.0000 -0.0000 -0.0000
vn -0.0000 -0.5000 0.8660
vn -0.0000 -0.8660 -0.5000
vn -0.0000 0.8660 0.5000
vt 0.375000 0.000000
vt 0.625000 0.000000
vt 0.625000 0.250000
vt 0.375000 0.250000
vt 0.625000 0.500000
vt 0.375000 0.500000
vt 0.625000 0.750000
vt 0.375000 0.750000
vt 0.625000 1.000000
vt 0.375000 1.000000
vt 0.125000 0.500000
vt 0.125000 0.750000
vt 0.875000 0.500000
vt 0.875000 0.750000
s 0
f 25/15/7 28/16/7 34/17/7
f 25/15/7 34/17/7 31/18/7
f 33/18/8 35/17/8 46/19/8
f 33/18/8 46/19/8 44/20/8
f 45/20/9 48/19/9 42/21/9
f 45/20/9 42/21/9 39/22/9
f 38/22/10 40/21/10 29/23/10
f 38/22/10 29/23/10 27/24/10
f 32/25/11 43/20/11 37/22/11
f 32/25/11 37/22/11 26/26/11
f 47/19/12 36/27/12 30/28/12
f 47/19/12 30/28/12 41/21/12
o Cube.004
v -10.000000 1.930664 -7.708451
v -10.000000 1.930664 -7.708451
v -10.000000 1.930664 -7.708451
v -10.000000 3.930664 -7.708451
v -10.000000 3.930664 -7.708451
v -10.000000 3.930664 -7.708451
v -10.000000 1.930664 -17.708450
v -10.000000 1.930664 -17.708450
v -10.000000 1.930664 -17.708450
v -10.000000 3.930664 -17.708450
v -10.000000 3.930664 -17.708450
v -10.000000 3.930664 -17.708450
v 10.000000 1.930664 -7.708451
v 10.000000 1.930664 -7.708451
v 10.000000 1.930664 -7.708451
v 10.000000 3.930664 -7.708451
v 10.000000 3.930664 -7.708451
v 10.000000 3.930664 -7.708451
v 10.000000 1.930664 -17.708450
v 10.000000 1.930664 -17.708450
v 10.000000 1.930664 -17.708450
v 10.000000 3.930664 -17.708450
v 10.000000 3.930664 -17.708450
v 10.000000 3.930664 -17.708450
vn -1.0000 -0.0000 -0.0000
vn -0.0000 -0.0000 -1.0000
vn 1.0000 -0.0000 -0.0000
vn -0.0000 -0.0000 1.0000
vn -0.0000 -1.0000 -0.0000
vn -0.0000 1.0000 -0.0000
vt 0.375000 0.000000
vt 0.625000 0.000000
vt 0.625000 0.250000
vt 0.375000 0.250000
vt 0.625000 0.500000
vt 0.375000 0.500000
vt 0.625000 0.750000
vt 0.375000 0.750000
vt 0.625000 1.000000
vt 0.375000 1.000000
vt 0.125000 0.500000
vt 0.125000 0.750000
vt 0.875000 0.500000
vt 0.875000 0.750000
s 0
f 49/29/13 52/30/13 58/31/13
f 49/29/13 58/31/13 55/32/13
f 57/32/14 59/31/14 70/33/14
f 57/32/14 70/33/14 68/34/14
f 69/34/15 72/33/15 66/35/15
f 69/34/15 66/35/15 63/36/15
f 62/36/16 64/35/16 53/37/16
f 62/36/16 53/37/16 51/38/16
f 56/39/17 67/34/17 61/36/17
f 56/39/17 61/36/17 50/40/17
f 71/33/18 60/41/18 54/42/18
f 71/33/18 54/42/18 65/35/18
o Cube.005
v 9.605562 2.178771 -15.325172
v 9.605562 2.178771 -15.325172
v 9.605562 2.178771 -15.325172
v 8.605562 3.910822 -15.325172
v 8.605562 3.910822 -15.325172
v 8.605562 3.910822 -15.325172
v 14.801714 5.178771 -15.325172
v 14.801714 5.178771 -15.325172
v 14.801714 5.178771 -15.325172
v 13.801714 6.910822 -15.325172
v 13.801714 6.910822 -15.325172
v 13.801714 6.910822 -15.325172
v 9.605562 2.178771 -9.739199
v 9.605562 2.178771 -9.739199
v 9.605562 2.178771 -9.739199
v 8.605562 3.910822 -9.739199
v 8.605562 3.910822 -9.739199
v 8.605562 3.910822 -9.739199
v 14.801714 5.178771 -9.739199
v 14.801714 5.178771 -9.739199
v 14.801714 5.178771 -9.739199
v 13.801714 6.910822 -9.739199
v 13.801714 6.910822 -9.739199
v 13.801714 6.910822 -9.739199
vn -0.0000 -0.0000 -1.0000
vn 0.8660 0.5000 -0.0000
vn -0.0000 -0.0000 1.0000
vn -0.8660 -0.5000 -0.0000
vn 0.5000 -0.8660 -0.0000
vn -0.5000 0.8660 -0.0000
vt 0.375000 0.000000
vt 0.625000 0.000000
vt 0.625000 0.250000
vt 0.375000 0.250000
vt 0.625000 0.500000
vt 0.375000 0.500000
vt 0.625000 0.750000
vt 0.375000 0.750000
vt 0.625000 1.000000
vt 0.375000 1.000000
vt 0.125000 0.500000
vt 0.125000 0.750000
vt 0.875000 0.500000
vt 0.875000 0.750000
s 0
f 73/43/19 76/44/19 82/45/19
f 73/43/19 82/45/19 79/46/19
f 81/46/20 83/45/20 94/47/20
f 81/46/20 94/47/20 92/48/20
f 93/48/21 96/47/21 90/49/21
f 93/48/21 90/49/21 87/50/21
f 86/50/22 88/49/22 77/51/22
f 86/50/22 77/51/22 75/52/22
f 80/53/23 91/48/23 85/50/23
f 80/53/23 85/50/23 74/54/23
f 95/47/24 84/55/24 78/56/24
f 95/47/24 78/56/24 89/49/24
o Cube.006
v 13.800002 4.923380 -16.919041
v 13.800002 4.923380 -16.919041
v 13.800002 4.923380 -16.919041
v 13.800002 6.923380 -16.919041
v 13.800002 6.923380 -16.919041
v 13.800002 6.923380 -16.919041
v 23.800003 4.923380 -16.919039
v 23.800003 4.923380 -16.919039
v 23.800003 4.923380 -16.919039
v 23.800003 6.923380 -16.919039
v 23.800003 6.923380 -16.919039
v 23.800003 6.923380 -16.919039
v 13.799999 4.923380 3.080962
v 13.799999 4.923380 3.080962
v 13.799999 4.923380 3.080962
v 13.799999 6.923380 3.080962
v 13.799999 6.923380 3.080962
v 13.799999 6.923380 3.080962
v 23.799999 4.923380 3.080964
v 23.799999 4.923380 3.080964
v 23.799999 4.923380 3.080964
v 23.799999 6.923380 3.080964
v 23.799999 6.923380 3.080964
v 23.799999 6.923380 3.080964
vn -0.0000 -0.0000 -1.0000
vn 1.0000 -0.0000 -0.0000
vn -0.0000 -0.0000 1.0000
vn -1.0000 -0.0000 -0.0000
vn -0.0000 -1.0000 -0.0000
vn -0.0000 1.0000 -0.0000
vt 0.375000 0.000000
vt 0.625000 0.000000
vt 0.625000 0.250000
vt 0.375000 0.250000
vt 0.625000 0.500000
vt 0.375000 0.500000
vt 0.625000 0.750000
vt 0.375000 0.750000
vt 0.625000 1.000000
vt 0.375000 1.000000
vt 0.125000 0.500000
vt 0.125000 0.750000
vt 0.875000 0.500000
vt 0.875000 0.750000
s 0
f 97/57/25 100/58/25 106/59/25
f 97/57/25 106/59/25 103/60/25
f 105/60/26 107/59/26 118/61/26
f 105/60/26 118/61/26 116/62/26
f 117/62/27 120/61/27 114/63/27
f 117/62/27 114/63/27 111/64/27
f 110/64/28 112/63/28 101/65/28
f 110/64/28 101/65/28 99/66/28
f 104/67/29 115/62/29 109/64/29
f 104/67/29 109/64/29 98/68/29
f 119/61/30 108/69/30 102/70/30
f 119/61/30 102/70/30 113/63/30
