# Blender 3.6.3
# www.blender.org
mtllib thefield.mtl
o Cube
v 20.325569 -2.721287 40.000000
v 19.978275 -0.751671 40.000000
v 20.325569 -2.721293 -40.000000
v 19.978275 -0.751677 -40.000000
v 40.021725 0.751677 40.000000
v 39.674431 2.721293 40.000000
v 40.021725 0.751671 -40.000000
v 39.674431 2.721287 -40.000000
vn -0.9848 -0.1736 -0.0000
vn -0.0000 -0.0000 -1.0000
vn 0.9848 0.1736 -0.0000
vn -0.0000 -0.0000 1.0000
vn 0.1736 -0.9848 -0.0000
vn -0.1736 0.9848 -0.0000
vt 0.375000 0.000000
vt 0.625000 0.000000
vt 0.625000 0.250000
vt 0.375000 0.250000
vt 0.625000 0.500000
vt 0.375000 0.500000
vt 0.625000 0.750000
vt 0.375000 0.750000
vt 0.625000 1.000000
vt 0.375000 1.000000
vt 0.125000 0.500000
vt 0.125000 0.750000
vt 0.875000 0.500000
vt 0.875000 0.750000
s 0
f 1/1/1 2/2/1 4/3/1 3/4/1
f 3/4/2 4/3/2 8/5/2 7/6/2
f 7/6/3 8/5/3 6/7/3 5/8/3
f 5/8/4 6/7/4 2/9/4 1/10/4
f 3/11/5 7/6/5 5/8/5 1/12/5
f 8/5/6 4/13/6 2/14/6 6/7/6
o Cube.001
v -40.021725 0.751677 40.000000
v -39.674431 2.721293 40.000000
v -40.021725 0.751671 -40.000000
v -39.674431 2.721287 -40.000000
v -20.325569 -2.721287 40.000000
v -19.978275 -0.751671 40.000000
v -20.325569 -2.721293 -40.000000
v -19.978275 -0.751677 -40.000000
vn -0.9848 0.1736 -0.0000
vn -0.0000 -0.0000 -1.0000
vn 0.9848 -0.1736 -0.0000
vn -0.0000 -0.0000 1.0000
vn -0.1736 -0.9848 -0.0000
vn 0.1736 0.9848 -0.0000
vt 0.375000 0.000000
vt 0.625000 0.000000
vt 0.625000 0.250000
vt 0.375000 0.250000
vt 0.625000 0.500000
vt 0.375000 0.500000
vt 0.625000 0.750000
vt 0.375000 0.750000
vt 0.625000 1.000000
vt 0.375000 1.000000
vt 0.125000 0.500000
vt 0.125000 0.750000
vt 0.875000 0.500000
vt 0.875000 0.750000
s 0
f 9/15/7 10/16/7 12/17/7 11/18/7
f 11/18/8 12/17/8 16/19/8 15/20/8
f 15/20/9 16/19/9 14/21/9 13/22/9
f 13/22/10 14/21/10 10/23/10 9/24/10
f 11/25/11 15/20/11 13/22/11 9/26/11
f 16/19/12 12/27/12 10/28/12 14/21/12
o Cube.002
v -40.000000 -2.721292 -20.325569
v -40.000000 -0.751675 -19.978275
v -40.000000 0.751671 -40.021725
v -40.000000 2.721287 -39.674431
v 40.000000 -2.721292 -20.325569
v 40.000000 -0.751675 -19.978275
v 40.000000 0.751671 -40.021725
v 40.000000 2.721287 -39.674431
vn -1.0000 -0.0000 -0.0000
vn -0.0000 0.1736 -0.9848
vn 1.0000 -0.0000 -0.0000
vn -0.0000 -0.1736 0.9848
vn -0.0000 -0.9848 -0.1736
vn -0.0000 0.9848 0.1736
vt 0.375000 0.000000
vt 0.625000 0.000000
vt 0.625000 0.250000
vt 0.375000 0.250000
vt 0.625000 0.500000
vt 0.375000 0.500000
vt 0.625000 0.750000
vt 0.375000 0.750000
vt 0.625000 1.000000
vt 0.375000 1.000000
vt 0.125000 0.500000
vt 0.125000 0.750000
vt 0.875000 0.500000
vt 0.875000 0.750000
s 0
f 17/29/13 18/30/13 20/31/13 19/32/13
f 19/32/14 20/31/14 24/33/14 23/34/14
f 23/34/15 24/33/15 22/35/15 21/36/15
f 21/36/16 22/35/16 18/37/16 17/38/16
f 19/39/17 23/34/17 21/36/17 17/40/17
f 24/33/18 20/41/18 18/42/18 22/35/18
o Cube.003
v -40.000000 0.751677 40.021725
v -40.000000 2.721293 39.674431
v -40.000000 -2.721289 20.325569
v -40.000000 -0.751673 19.978275
v 40.000000 0.751677 40.021725
v 40.000000 2.721293 39.674431
v 40.000000 -2.721289 20.325569
v 40.000000 -0.751673 19.978275
vn -1.0000 -0.0000 -0.0000
vn -0.0000 -0.1736 -0.9848
vn 1.0000 -0.0000 -0.0000
vn -0.0000 0.1736 0.9848
vn -0.0000 -0.9848 0.1736
vn -0.0000 0.9848 -0.1736
vt 0.375000 0.000000
vt 0.625000 0.000000
vt 0.625000 0.250000
vt 0.375000 0.250000
vt 0.625000 0.500000
vt 0.375000 0.500000
vt 0.625000 0.750000
vt 0.375000 0.750000
vt 0.625000 1.000000
vt 0.375000 1.000000
vt 0.125000 0.500000
vt 0.125000 0.750000
vt 0.875000 0.500000
vt 0.875000 0.750000
s 0
f 25/43/19 26/44/19 28/45/19 27/46/19
f 27/46/20 28/45/20 32/47/20 31/48/20
f 31/48/21 32/47/21 30/49/21 29/50/21
f 29/50/22 30/49/22 26/51/22 25/52/22
f 27/53/23 31/48/23 29/50/23 25/54/23
f 32/47/24 28/55/24 26/56/24 30/49/24
o Cube.004
v 14.000000 -0.500000 1.000000
v 14.000000 0.500000 1.000000
v 14.000000 -0.500000 -1.000000
v 14.000000 0.500000 -1.000000
v 16.000000 -0.500000 1.000000
v 16.000000 0.500000 1.000000
v 16.000000 -0.500000 -1.000000
v 16.000000 0.500000 -1.000000
vn -1.0000 -0.0000 -0.0000
vn -0.0000 -0.0000 -1.0000
vn 1.0000 -0.0000 -0.0000
vn -0.0000 -0.0000 1.0000
vn -0.0000 -1.0000 -0.0000
vn -0.0000 1.0000 -0.0000
vt 0.375000 0.000000
vt 0.625000 0.000000
vt 0.625000 0.250000
vt 0.375000 0.250000
vt 0.625000 0.500000
vt 0.375000 0.500000
vt 0.625000 0.750000
vt 0.375000 0.750000
vt 0.625000 1.000000
vt 0.375000 1.000000
vt 0.125000 0.500000
vt 0.125000 0.750000
vt 0.875000 0.500000
vt 0.875000 0.750000
s 0
f 33/57/25 34/58/25 36/59/25 35/60/25
f 35/60/26 36/59/26 40/61/26 39/62/26
f 39/62/27 40/61/27 38/63/27 37/64/27
f 37/64/28 38/63/28 34/65/28 33/66/28
f 35/67/29 39/62/29 37/64/29 33/68/29
f 40/61/30 36/69/30 34/70/30 38/63/30
o Cube.005
v -16.000000 -0.500000 1.000000
v -16.000000 0.500000 1.000000
v -16.000000 -0.500000 -1.000000
v -16.000000 0.500000 -1.000000
v -14.000000 -0.500000 1.000000
v -14.000000 0.500000 1.000000
v -14.000000 -0.500000 -1.000000
v -14.000000 0.500000 -1.000000
vn -1.0000 -0.0000 -0.0000
vn -0.0000 -0.0000 -1.0000
vn 1.0000 -0.0000 -0.0000
vn -0.0000 -0.0000 1.0000
vn -0.0000 -1.0000 -0.0000
vn -0.0000 1.0000 -0.0000
vt 0.375000 0.000000
vt 0.625000 0.000000
vt 0.625000 0.250000
vt 0.375000 0.250000
vt 0.625000 0.500000
vt 0.375000 0.500000
vt 0.625000 0.750000
vt 0.375000 0.750000
vt 0.625000 1.000000
vt 0.375000 1.000000
vt 0.125000 0.500000
vt 0.125000 0.750000
vt 0.875000 0.500000
vt 0.875000 0.750000
s 0
f 41/71/31 42/72/31 44/73/31 43/74/31
f 43/74/32 44/73/32 48/75/32 47/76/32
f 47/76/33 48/75/33 46/77/33 45/78/33
f 45/78/34 46/77/34 42/79/34 41/80/34
f 43/81/35 47/76/35 45/78/35 41/82/35
f 48/75/36 44/83/36 42/84/36 46/77/36
o Cube.006
v -1.000000 -0.500001 -14.000000
v -1.000000 0.499999 -14.000000
v -1.000000 -0.500001 -16.000000
v -1.000000 0.499999 -16.000000
v 1.000000 -0.500001 -14.000000
v 1.000000 0.499999 -14.000000
v 1.000000 -0.500001 -16.000000
v 1.000000 0.499999 -16.000000
vn -1.0000 -0.0000 -0.0000
vn -0.0000 -0.0000 -1.0000
vn 1.0000 -0.0000 -0.0000
vn -0.0000 -0.0000 1.0000
vn -0.0000 -1.0000 -0.0000
vn -0.0000 1.0000 -0.0000
vt 0.375000 0.000000
vt 0.625000 0.000000
vt 0.625000 0.250000
vt 0.375000 0.250000
vt 0.625000 0.500000
vt 0.375000 0.500000
vt 0.625000 0.750000
vt 0.375000 0.750000
vt 0.625000 1.000000
vt 0.375000 1.000000
vt 0.125000 0.500000
vt 0.125000 0.750000
vt 0.875000 0.500000
vt 0.875000 0.750000
s 0
f 49/85/37 50/86/37 52/87/37 51/88/37
f 51/88/38 52/87/38 56/89/38 55/90/38
f 55/90/39 56/89/39 54/91/39 53/92/39
f 53/92/40 54/91/40 50/93/40 49/94/40
f 51/95/41 55/90/41 53/92/41 49/96/41
f 56/89/42 52/97/42 50/98/42 54/91/42
o Cube.007
v -1.000000 -0.499999 16.000000
v -1.000000 0.500001 16.000000
v -1.000000 -0.499999 14.000000
v -1.000000 0.500001 14.000000
v 1.000000 -0.499999 16.000000
v 1.000000 0.500001 16.000000
v 1.000000 -0.499999 14.000000
v 1.000000 0.500001 14.000000
vn -1.0000 -0.0000 -0.0000
vn -0.0000 -0.0000 -1.0000
vn 1.0000 -0.0000 -0.0000
vn -0.0000 -0.0000 1.0000
vn -0.0000 -1.0000 -0.0000
vn -0.0000 1.0000 -0.0000
vt 0.375000 0.000000
vt 0.625000 0.000000
vt 0.625000 0.250000
vt 0.375000 0.250000
vt 0.625000 0.500000
vt 0.375000 0.500000
vt 0.625000 0.750000
vt 0.375000 0.750000
vt 0.625000 1.000000
vt 0.375000 1.000000
vt 0.125000 0.500000
vt 0.125000 0.750000
vt 0.875000 0.500000
vt 0.875000 0.750000
s 0
f 57/99/43 58/100/43 60/101/43 59/102/43
f 59/102/44 60/101/44 64/103/44 63/104/44
f 63/104/45 64/103/45 62/105/45 61/106/45
f 61/106/46 62/105/46 58/107/46 57/108/46
f 59/109/47 63/104/47 61/106/47 57/110/47
f 64/103/48 60/111/48 58/112/48 62/105/48
o Cylinder
v 0.000000 -1.000001 -10.000000
v 0.000000 0.999999 -10.000000
v 1.950903 -1.000001 -9.807853
v 1.950903 0.999999 -9.807853
v 3.826835 -1.000001 -9.238795
v 3.826835 0.999999 -9.238795
v 5.555702 -1.000001 -8.314696
v 5.555702 0.999999 -8.314696
v 7.071068 -1.000000 -7.071068
v 7.071068 0.999999 -7.071068
v 8.314696 -1.000000 -5.555702
v 8.314696 1.000000 -5.555702
v 9.238795 -1.000000 -3.826835
v 9.238795 1.000000 -3.826835
v 9.807853 -1.000000 -1.950903
v 9.807853 1.000000 -1.950903
v 10.000000 -1.000000 0.000000
v 10.000000 1.000000 -0.000000
v 9.807853 -1.000000 1.950903
v 9.807853 1.000000 1.950903
v 9.238795 -1.000000 3.826835
v 9.238795 1.000000 3.826835
v 8.314696 -1.000000 5.555702
v 8.314696 1.000000 5.555702
v 7.071068 -0.999999 7.071068
v 7.071068 1.000000 7.071068
v 5.555702 -0.999999 8.314696
v 5.555702 1.000001 8.314696
v 3.826835 -0.999999 9.238795
v 3.826835 1.000001 9.238795
v 1.950903 -0.999999 9.807853
v 1.950903 1.000001 9.807853
v 0.000000 -0.999999 10.000000
v 0.000000 1.000001 10.000000
v -1.950903 -0.999999 9.807853
v -1.950903 1.000001 9.807853
v -3.826835 -0.999999 9.238795
v -3.826835 1.000001 9.238795
v -5.555702 -0.999999 8.314696
v -5.555702 1.000001 8.314696
v -7.071068 -0.999999 7.071068
v -7.071068 1.000000 7.071068
v -8.314696 -1.000000 5.555702
v -8.314696 1.000000 5.555702
v -9.238795 -1.000000 3.826835
v -9.238795 1.000000 3.826835
v -9.807853 -1.000000 1.950903
v -9.807853 1.000000 1.950903
v -10.000000 -1.000000 0.000000
v -10.000000 1.000000 -0.000000
v -9.807853 -1.000000 -1.950903
v -9.807853 1.000000 -1.950903
v -9.238795 -1.000000 -3.826835
v -9.238795 1.000000 -3.826835
v -8.314696 -1.000000 -5.555702
v -8.314696 1.000000 -5.555702
v -7.071068 -1.000000 -7.071068
v -7.071068 0.999999 -7.071068
v -5.555702 -1.000001 -8.314696
v -5.555702 0.999999 -8.314696
v -3.826835 -1.000001 -9.238795
v -3.826835 0.999999 -9.238795
v -1.950903 -1.000001 -9.807853
v -1.950903 0.999999 -9.807853
vn 0.0980 -0.0000 -0.9952
vn 0.2903 -0.0000 -0.9569
vn 0.4714 -0.0000 -0.8819
vn 0.6344 -0.0000 -0.7730
vn 0.7730 -0.0000 -0.6344
vn 0.8819 -0.0000 -0.4714
vn 0.9569 -0.0000 -0.2903
vn 0.9952 -0.0000 -0.0980
vn 0.9952 -0.0000 0.0980
vn 0.9569 -0.0000 0.2903
vn 0.8819 -0.0000 0.4714
vn 0.7730 -0.0000 0.6344
vn 0.6344 -0.0000 0.7730
vn 0.4714 -0.0000 0.8819
vn 0.2903 -0.0000 0.9569
vn 0.0980 -0.0000 0.9952
vn -0.0980 -0.0000 0.9952
vn -0.2903 -0.0000 0.9569
vn -0.4714 -0.0000 0.8819
vn -0.6344 -0.0000 0.7730
vn -0.7730 -0.0000 0.6344
vn -0.8819 -0.0000 0.4714
vn -0.9569 -0.0000 0.2903
vn -0.9952 -0.0000 0.0980
vn -0.9952 -0.0000 -0.0980
vn -0.9569 -0.0000 -0.2903
vn -0.8819 -0.0000 -0.4714
vn -0.7730 -0.0000 -0.6344
vn -0.6344 -0.0000 -0.7730
vn -0.4714 -0.0000 -0.8819
vn -0.0000 1.0000 -0.0000
vn -0.2903 -0.0000 -0.9569
vn -0.0980 -0.0000 -0.9952
vn -0.0000 -1.0000 -0.0000
vt 1.000000 0.500000
vt 1.000000 1.000000
vt 0.968750 1.000000
vt 0.968750 0.500000
vt 0.937500 1.000000
vt 0.937500 0.500000
vt 0.906250 1.000000
vt 0.906250 0.500000
vt 0.875000 1.000000
vt 0.875000 0.500000
vt 0.843750 1.000000
vt 0.843750 0.500000
vt 0.812500 1.000000
vt 0.812500 0.500000
vt 0.781250 1.000000
vt 0.781250 0.500000
vt 0.750000 1.000000
vt 0.750000 0.500000
vt 0.718750 1.000000
vt 0.718750 0.500000
vt 0.687500 1.000000
vt 0.687500 0.500000
vt 0.656250 1.000000
vt 0.656250 0.500000
vt 0.625000 1.000000
vt 0.625000 0.500000
vt 0.593750 1.000000
vt 0.593750 0.500000
vt 0.562500 1.000000
vt 0.562500 0.500000
vt 0.531250 1.000000
vt 0.531250 0.500000
vt 0.500000 1.000000
vt 0.500000 0.500000
vt 0.468750 1.000000
vt 0.468750 0.500000
vt 0.437500 1.000000
vt 0.437500 0.500000
vt 0.406250 1.000000
vt 0.406250 0.500000
vt 0.375000 1.000000
vt 0.375000 0.500000
vt 0.343750 1.000000
vt 0.343750 0.500000
vt 0.312500 1.000000
vt 0.312500 0.500000
vt 0.281250 1.000000
vt 0.281250 0.500000
vt 0.250000 1.000000
vt 0.250000 0.500000
vt 0.218750 1.000000
vt 0.218750 0.500000
vt 0.187500 1.000000
vt 0.187500 0.500000
vt 0.156250 1.000000
vt 0.156250 0.500000
vt 0.125000 1.000000
vt 0.125000 0.500000
vt 0.093750 1.000000
vt 0.093750 0.500000
vt 0.062500 1.000000
vt 0.062500 0.500000
vt 0.296822 0.485388
vt 0.250000 0.490000
vt 0.203178 0.485388
vt 0.158156 0.471731
vt 0.116663 0.449553
vt 0.080294 0.419706
vt 0.050447 0.383337
vt 0.028269 0.341844
vt 0.014612 0.296822
vt 0.010000 0.250000
vt 0.014612 0.203178
vt 0.028269 0.158156
vt 0.050447 0.116663
vt 0.080294 0.080294
vt 0.116663 0.050447
vt 0.158156 0.028269
vt 0.203178 0.014612
vt 0.250000 0.010000
vt 0.296822 0.014612
vt 0.341844 0.028269
vt 0.383337 0.050447
vt 0.419706 0.080294
vt 0.449553 0.116663
vt 0.471731 0.158156
vt 0.485388 0.203178
vt 0.490000 0.250000
vt 0.485388 0.296822
vt 0.471731 0.341844
vt 0.449553 0.383337
vt 0.419706 0.419706
vt 0.383337 0.449553
vt 0.341844 0.471731
vt 0.031250 1.000000
vt 0.031250 0.500000
vt 0.000000 1.000000
vt 0.000000 0.500000
vt 0.750000 0.490000
vt 0.796822 0.485388
vt 0.841844 0.471731
vt 0.883337 0.449553
vt 0.919706 0.419706
vt 0.949553 0.383337
vt 0.971731 0.341844
vt 0.985388 0.296822
vt 0.990000 0.250000
vt 0.985388 0.203178
vt 0.971731 0.158156
vt 0.949553 0.116663
vt 0.919706 0.080294
vt 0.883337 0.050447
vt 0.841844 0.028269
vt 0.796822 0.014612
vt 0.750000 0.010000
vt 0.703178 0.014612
vt 0.658156 0.028269
vt 0.616663 0.050447
vt 0.580294 0.080294
vt 0.550447 0.116663
vt 0.528269 0.158156
vt 0.514612 0.203178
vt 0.510000 0.250000
vt 0.514612 0.296822
vt 0.528269 0.341844
vt 0.550447 0.383337
vt 0.580294 0.419706
vt 0.616663 0.449553
vt 0.658156 0.471731
vt 0.703178 0.485388
s 0
f 65/113/49 66/114/49 68/115/49 67/116/49
f 67/116/50 68/115/50 70/117/50 69/118/50
f 69/118/51 70/117/51 72/119/51 71/120/51
f 71/120/52 72/119/52 74/121/52 73/122/52
f 73/122/53 74/121/53 76/123/53 75/124/53
f 75/124/54 76/123/54 78/125/54 77/126/54
f 77/126/55 78/125/55 80/127/55 79/128/55
f 79/128/56 80/127/56 82/129/56 81/130/56
f 81/130/57 82/129/57 84/131/57 83/132/57
f 83/132/58 84/131/58 86/133/58 85/134/58
f 85/134/59 86/133/59 88/135/59 87/136/59
f 87/136/60 88/135/60 90/137/60 89/138/60
f 89/138/61 90/137/61 92/139/61 91/140/61
f 91/140/62 92/139/62 94/141/62 93/142/62
f 93/142/63 94/141/63 96/143/63 95/144/63
f 95/144/64 96/143/64 98/145/64 97/146/64
f 97/146/65 98/145/65 100/147/65 99/148/65
f 99/148/66 100/147/66 102/149/66 101/150/66
f 101/150/67 102/149/67 104/151/67 103/152/67
f 103/152/68 104/151/68 106/153/68 105/154/68
f 105/154/69 106/153/69 108/155/69 107/156/69
f 107/156/70 108/155/70 110/157/70 109/158/70
f 109/158/71 110/157/71 112/159/71 111/160/71
f 111/160/72 112/159/72 114/161/72 113/162/72
f 113/162/73 114/161/73 116/163/73 115/164/73
f 115/164/74 116/163/74 118/165/74 117/166/74
f 117/166/75 118/165/75 120/167/75 119/168/75
f 119/168/76 120/167/76 122/169/76 121/170/76
f 121/170/77 122/169/77 124/171/77 123/172/77
f 123/172/78 124/171/78 126/173/78 125/174/78
f 68/175/79 66/176/79 128/177/79 126/178/79 124/179/79 122/180/79 120/181/79 118/182/79 116/183/79 114/184/79 112/185/79 110/186/79 108/187/79 106/188/79 104/189/79 102/190/79 100/191/79 98/192/79 96/193/79 94/194/79 92/195/79 90/196/79 88/197/79 86/198/79 84/199/79 82/200/79 80/201/79 78/202/79 76/203/79 74/204/79 72/205/79 70/206/79
f 125/174/80 126/173/80 128/207/80 127/208/80
f 127/208/81 128/207/81 66/209/81 65/210/81
f 65/211/82 67/212/82 69/213/82 71/214/82 73/215/82 75/216/82 77/217/82 79/218/82 81/219/82 83/220/82 85/221/82 87/222/82 89/223/82 91/224/82 93/225/82 95/226/82 97/227/82 99/228/82 101/229/82 103/230/82 105/231/82 107/232/82 109/233/82 111/234/82 113/235/82 115/236/82 117/237/82 119/238/82 121/239/82 123/240/82 125/241/82 127/242/82
